<svg width="354" height="91" viewBox="0 0 354 91" fill="none" xmlns="http://www.w3.org/2000/svg">
<path d="M102.247 45.6796C102.247 40.615 103.343 36.1104 105.535 32.1658C107.726 28.1726 110.77 25.0803 114.665 22.8889C118.61 20.6488 123.066 19.5287 128.033 19.5287C134.12 19.5287 139.331 21.1357 143.665 24.3498C147.999 27.5639 150.897 31.9467 152.358 37.4983H138.625C137.602 35.3556 136.141 33.7242 134.242 32.6041C132.392 31.4841 130.273 30.924 127.887 30.924C124.04 30.924 120.923 32.2632 118.537 34.9416C116.151 37.62 114.958 41.1993 114.958 45.6796C114.958 50.1598 116.151 53.7391 118.537 56.4175C120.923 59.0959 124.04 60.4351 127.887 60.4351C130.273 60.4351 132.392 59.875 134.242 58.755C136.141 57.6349 137.602 56.0035 138.625 53.8608H152.358C150.897 59.4124 147.999 63.7952 143.665 67.0093C139.331 70.1747 134.12 71.7574 128.033 71.7574C123.066 71.7574 118.61 70.6616 114.665 68.4702C110.77 66.2301 107.726 63.1378 105.535 59.1933C103.343 55.2487 102.247 50.7441 102.247 45.6796ZM175.639 71.9765C171.646 71.9765 168.042 71.1243 164.828 69.4198C161.663 67.7154 159.155 65.2805 157.304 62.1151C155.503 58.9498 154.602 55.2487 154.602 51.012C154.602 46.824 155.527 43.1473 157.377 39.9819C159.228 36.7678 161.76 34.3086 164.974 32.6041C168.188 30.8997 171.792 30.0475 175.785 30.0475C179.779 30.0475 183.382 30.8997 186.596 32.6041C189.81 34.3086 192.343 36.7678 194.193 39.9819C196.044 43.1473 196.969 46.824 196.969 51.012C196.969 55.2 196.019 58.9011 194.12 62.1151C192.27 65.2805 189.713 67.7154 186.45 69.4198C183.236 71.1243 179.632 71.9765 175.639 71.9765ZM175.639 61.1655C178.025 61.1655 180.046 60.289 181.702 58.5358C183.407 56.7827 184.259 54.2748 184.259 51.012C184.259 47.7492 183.431 45.2413 181.775 43.4881C180.168 41.735 178.172 40.8584 175.785 40.8584C173.35 40.8584 171.329 41.735 169.722 43.4881C168.115 45.1926 167.312 47.7005 167.312 51.012C167.312 54.2748 168.091 56.7827 169.649 58.5358C171.256 60.289 173.253 61.1655 175.639 61.1655ZM213.165 36.4026C214.382 34.5034 216.062 32.9694 218.205 31.8006C220.348 30.6319 222.856 30.0475 225.729 30.0475C229.089 30.0475 232.133 30.8997 234.86 32.6041C237.587 34.3086 239.73 36.7435 241.288 39.9088C242.895 43.0742 243.699 46.7509 243.699 50.9389C243.699 55.127 242.895 58.828 241.288 62.0421C239.73 65.2075 237.587 67.6667 234.86 69.4198C232.133 71.1243 229.089 71.9765 225.729 71.9765C222.904 71.9765 220.397 71.3921 218.205 70.2234C216.062 69.0546 214.382 67.545 213.165 65.6944V90.8226H200.674V30.6319H213.165V36.4026ZM230.988 50.9389C230.988 47.8223 230.112 45.3874 228.359 43.6342C226.654 41.8324 224.536 40.9315 222.004 40.9315C219.52 40.9315 217.402 41.8324 215.648 43.6342C213.944 45.4361 213.092 47.8953 213.092 51.012C213.092 54.1287 213.944 56.5879 215.648 58.3897C217.402 60.1916 219.52 61.0925 222.004 61.0925C224.487 61.0925 226.606 60.1916 228.359 58.3897C230.112 56.5392 230.988 54.0556 230.988 50.9389ZM253.612 26.3951C251.42 26.3951 249.619 25.7621 248.206 24.4959C246.843 23.1811 246.161 21.574 246.161 19.6748C246.161 17.7269 246.843 16.1198 248.206 14.8537C249.619 13.5388 251.42 12.8814 253.612 12.8814C255.755 12.8814 257.508 13.5388 258.871 14.8537C260.283 16.1198 260.99 17.7269 260.99 19.6748C260.99 21.574 260.283 23.1811 258.871 24.4959C257.508 25.7621 255.755 26.3951 253.612 26.3951ZM259.821 30.6319V71.3921H247.33V30.6319H259.821ZM304.374 50.3546C304.374 51.5233 304.301 52.7408 304.155 54.0069H275.885C276.08 56.5392 276.884 58.4871 278.296 59.8507C279.757 61.1655 281.534 61.823 283.628 61.823C286.745 61.823 288.912 60.5081 290.13 57.8784H303.424C302.742 60.5568 301.501 62.9674 299.699 65.1101C297.946 67.2528 295.73 68.9329 293.052 70.1503C290.373 71.3678 287.378 71.9765 284.067 71.9765C280.074 71.9765 276.519 71.1243 273.402 69.4198C270.285 67.7154 267.85 65.2805 266.097 62.1151C264.344 58.9498 263.467 55.2487 263.467 51.012C263.467 46.7753 264.32 43.0742 266.024 39.9088C267.777 36.7435 270.212 34.3086 273.329 32.6041C276.446 30.8997 280.025 30.0475 284.067 30.0475C288.011 30.0475 291.518 30.8753 294.586 32.5311C297.654 34.1868 300.04 36.5487 301.744 39.6166C303.497 42.6846 304.374 46.2639 304.374 50.3546ZM291.591 47.0674C291.591 44.9247 290.86 43.2203 289.399 41.9542C287.938 40.688 286.112 40.0549 283.921 40.0549C281.827 40.0549 280.049 40.6637 278.588 41.8811C277.176 43.0986 276.299 44.8273 275.959 47.0674H291.591ZM305.558 50.9389C305.558 46.7509 306.337 43.0742 307.896 39.9088C309.503 36.7435 311.67 34.3086 314.397 32.6041C317.124 30.8997 320.167 30.0475 323.528 30.0475C326.206 30.0475 328.641 30.6075 330.832 31.7276C333.072 32.8476 334.826 34.3573 336.092 36.2565V17.3373H348.583V71.3921H336.092V65.5484C334.923 67.4963 333.243 69.0546 331.051 70.2234C328.909 71.3921 326.401 71.9765 323.528 71.9765C320.167 71.9765 317.124 71.1243 314.397 69.4198C311.67 67.6667 309.503 65.2075 307.896 62.0421C306.337 58.828 305.558 55.127 305.558 50.9389ZM336.092 51.012C336.092 47.8953 335.215 45.4361 333.462 43.6342C331.758 41.8324 329.664 40.9315 327.18 40.9315C324.696 40.9315 322.578 41.8324 320.825 43.6342C319.12 45.3874 318.268 47.8223 318.268 50.9389C318.268 54.0556 319.12 56.5392 320.825 58.3897C322.578 60.1916 324.696 61.0925 327.18 61.0925C329.664 61.0925 331.758 60.1916 333.462 58.3897C335.215 56.5879 336.092 54.1287 336.092 51.012Z" fill="white"/>
<g clip-path="url(#clip0_158_9009)">
<g opacity="0.108421">
<path d="M19.1456 -0.00271606L66.1851 -0.00271606C72.2874 -0.00271606 74.5002 0.632662 76.7312 1.82577C78.9621 3.01888 80.7129 4.76971 81.906 7.00063C83.0991 9.23155 83.7345 11.4444 83.7345 17.5467V30.09H1.59619V17.5467C1.59619 11.4444 2.23157 9.23155 3.42468 7.00063C4.61778 4.76971 6.36862 3.01888 8.59954 1.82577C10.8305 0.632662 13.0433 -0.00271606 19.1456 -0.00271606Z" fill="url(#paint0_linear_158_9009)"/>
<g filter="url(#filter0_i_158_9009)">
<path d="M19.1456 -0.00271606L66.1851 -0.00271606C72.2874 -0.00271606 74.5002 0.632662 76.7312 1.82577C78.9621 3.01888 80.7129 4.76971 81.906 7.00063C83.0991 9.23155 83.7345 11.4444 83.7345 17.5467V30.09H1.59619V17.5467C1.59619 11.4444 2.23157 9.23155 3.42468 7.00063C4.61778 4.76971 6.36862 3.01888 8.59954 1.82577C10.8305 0.632662 13.0433 -0.00271606 19.1456 -0.00271606Z" fill="white"/>
</g>
</g>
<g opacity="0.308185">
<path d="M19.1454 9.73907H66.1848C72.2871 9.73907 74.5 10.3745 76.7309 11.5676C78.9618 12.7607 80.7127 14.5115 81.9058 16.7424C83.0989 18.9733 83.7343 21.1862 83.7343 27.2885V31.322H1.59595V27.2885C1.59595 21.1862 2.23133 18.9733 3.42443 16.7424C4.61754 14.5115 6.36838 12.7607 8.59929 11.5676C10.8302 10.3745 13.0431 9.73907 19.1454 9.73907Z" fill="url(#paint1_linear_158_9009)"/>
<g filter="url(#filter1_i_158_9009)">
<path d="M19.1454 9.73907H66.1848C72.2871 9.73907 74.5 10.3745 76.7309 11.5676C78.9618 12.7607 80.7127 14.5115 81.9058 16.7424C83.0989 18.9733 83.7343 21.1862 83.7343 27.2885V31.322H1.59595V27.2885C1.59595 21.1862 2.23133 18.9733 3.42443 16.7424C4.61754 14.5115 6.36838 12.7607 8.59929 11.5676C10.8302 10.3745 13.0431 9.73907 19.1454 9.73907Z" fill="white"/>
</g>
</g>
<path fill-rule="evenodd" clip-rule="evenodd" d="M76.7216 20.837C81.4314 20.837 85.2463 24.6517 85.2463 29.3617V71.9848C85.2463 76.6947 81.4314 80.5094 76.7216 80.5094H8.52469C3.8147 80.5094 0 76.6945 0 71.9848L0.0425565 29.3617C0.0425565 24.6517 3.8147 20.837 8.52469 20.837H76.7216ZM57.2058 63.4601H28.0405C26.6782 63.4601 25.5739 64.5644 25.5739 65.9267V69.5181C25.5739 70.8804 26.6782 71.9848 28.0405 71.9848H57.2058C58.5681 71.9848 59.6724 70.8804 59.6724 69.5181V65.9267C59.6724 64.5644 58.5681 63.4601 57.2058 63.4601ZM45.4055 46.4109H39.8408C39.0234 46.4109 38.3608 47.0735 38.3608 47.8908V53.4556C38.3608 54.273 39.0234 54.9356 39.8408 54.9356H45.4055C46.2229 54.9356 46.8855 54.273 46.8855 53.4556V47.8908C46.8855 47.0735 46.2229 46.4109 45.4055 46.4109ZM32.6186 46.4109H27.0538C26.2365 46.4109 25.5739 47.0735 25.5739 47.8908V53.4556C25.5739 54.273 26.2365 54.9356 27.0538 54.9356H32.6186C33.436 54.9356 34.0986 54.273 34.0986 53.4556V47.8908C34.0986 47.0735 33.436 46.4109 32.6186 46.4109ZM19.8317 46.4109H14.2669C13.4495 46.4109 12.7869 47.0735 12.7869 47.8908V53.4556C12.7869 54.273 13.4495 54.9356 14.2669 54.9356H19.8317C20.649 54.9356 21.3116 54.273 21.3116 53.4556V47.8908C21.3116 47.0735 20.649 46.4109 19.8317 46.4109ZM58.1925 46.4109H52.6277C51.8103 46.4109 51.1477 47.0735 51.1477 47.8908V53.4556C51.1477 54.273 51.8103 54.9356 52.6277 54.9356H58.1925C59.0098 54.9356 59.6724 54.273 59.6724 53.4556V47.8908C59.6724 47.0735 59.0098 46.4109 58.1925 46.4109ZM70.9794 46.4109H65.4146C64.5973 46.4109 63.9347 47.0735 63.9347 47.8908V53.4556C63.9347 54.273 64.5973 54.9356 65.4146 54.9356H70.9794C71.7968 54.9356 72.4594 54.273 72.4594 53.4556V47.8908C72.4594 47.0735 71.7968 46.4109 70.9794 46.4109ZM45.4055 33.6239H39.8408C39.0234 33.6239 38.3608 34.2865 38.3608 35.1039V40.6687C38.3608 41.486 39.0234 42.1486 39.8408 42.1486H45.4055C46.2229 42.1486 46.8855 41.486 46.8855 40.6687V35.1039C46.8855 34.2865 46.2229 33.6239 45.4055 33.6239ZM32.6186 33.6239H27.0538C26.2365 33.6239 25.5739 34.2865 25.5739 35.1039V40.6687C25.5739 41.486 26.2365 42.1486 27.0538 42.1486H32.6186C33.436 42.1486 34.0986 41.486 34.0986 40.6687V35.1039C34.0986 34.2865 33.436 33.6239 32.6186 33.6239ZM19.8317 33.6239H14.2669C13.4495 33.6239 12.7869 34.2865 12.7869 35.1039V40.6687C12.7869 41.486 13.4495 42.1486 14.2669 42.1486H19.8317C20.649 42.1486 21.3116 41.486 21.3116 40.6687V35.1039C21.3116 34.2865 20.649 33.6239 19.8317 33.6239ZM58.1925 33.6239H52.6277C51.8103 33.6239 51.1477 34.2865 51.1477 35.1039V40.6687C51.1477 41.486 51.8103 42.1486 52.6277 42.1486H58.1925C59.0098 42.1486 59.6724 41.486 59.6724 40.6687V35.1039C59.6724 34.2865 59.0098 33.6239 58.1925 33.6239ZM70.9794 33.6239H65.4146C64.5973 33.6239 63.9347 34.2865 63.9347 35.1039V40.6687C63.9347 41.486 64.5973 42.1486 65.4146 42.1486H70.9794C71.7968 42.1486 72.4594 41.486 72.4594 40.6687V35.1039C72.4594 34.2865 71.7968 33.6239 70.9794 33.6239Z" fill="white"/>
</g>
<defs>
<filter id="filter0_i_158_9009" x="1.59619" y="-0.00271606" width="82.1382" height="30.216" filterUnits="userSpaceOnUse" color-interpolation-filters="sRGB">
<feFlood flood-opacity="0" result="BackgroundImageFix"/>
<feBlend mode="normal" in="SourceGraphic" in2="BackgroundImageFix" result="shape"/>
<feColorMatrix in="SourceAlpha" type="matrix" values="0 0 0 0 0 0 0 0 0 0 0 0 0 0 0 0 0 0 127 0" result="hardAlpha"/>
<feOffset dy="0.123331"/>
<feGaussianBlur stdDeviation="0.184996"/>
<feComposite in2="hardAlpha" operator="arithmetic" k2="-1" k3="1"/>
<feColorMatrix type="matrix" values="0 0 0 0 0 0 0 0 0 0 0 0 0 0 0 0 0 0 0.228912 0"/>
<feBlend mode="normal" in2="shape" result="effect1_innerShadow_158_9009"/>
</filter>
<filter id="filter1_i_158_9009" x="1.59595" y="9.73907" width="82.1384" height="21.7062" filterUnits="userSpaceOnUse" color-interpolation-filters="sRGB">
<feFlood flood-opacity="0" result="BackgroundImageFix"/>
<feBlend mode="normal" in="SourceGraphic" in2="BackgroundImageFix" result="shape"/>
<feColorMatrix in="SourceAlpha" type="matrix" values="0 0 0 0 0 0 0 0 0 0 0 0 0 0 0 0 0 0 127 0" result="hardAlpha"/>
<feOffset dy="0.123331"/>
<feGaussianBlur stdDeviation="0.184996"/>
<feComposite in2="hardAlpha" operator="arithmetic" k2="-1" k3="1"/>
<feColorMatrix type="matrix" values="0 0 0 0 0 0 0 0 0 0 0 0 0 0 0 0 0 0 0.228912 0"/>
<feBlend mode="normal" in2="shape" result="effect1_innerShadow_158_9009"/>
</filter>
<linearGradient id="paint0_linear_158_9009" x1="4108.51" y1="-0.00271606" x2="4108.51" y2="3009.27" gradientUnits="userSpaceOnUse">
<stop offset="1" stop-color="#275CFF"/>
</linearGradient>
<linearGradient id="paint1_linear_158_9009" x1="4108.51" y1="9.73907" x2="4108.51" y2="2168.03" gradientUnits="userSpaceOnUse">
<stop offset="1" stop-color="#275CFF"/>
</linearGradient>
<clipPath id="clip0_158_9009">
<rect width="85.2216" height="80.6583" fill="white"/>
</clipPath>
</defs>
</svg>
